<?xml version="1.0" encoding="UTF-8" standalone="no"?>
<svg
   version="1.1"
   id="Layer_1"
   x="0px"
   y="0px"
   width="141.73"
   height="141.73"
   viewBox="0 0 141.73 141.73"
   enable-background="new 0 0 141.73 141.73"
   xml:space="preserve"
   xmlns="http://www.w3.org/2000/svg"
   xmlns:svg="http://www.w3.org/2000/svg"
   xmlns:rdf="http://www.w3.org/1999/02/22-rdf-syntax-ns#"
   xmlns:cc="http://creativecommons.org/ns#"
   xmlns:dc="http://purl.org/dc/elements/1.1/"><title
   id="title3067">LIKO-12</title><defs
   id="defs33" />

<g
   id="g2591"><path
     style="fill:#fef0e8;stroke-width:0.276816"
     d="m 17.71625,137.30094 v -4.42907 H 13.287187 8.858125 v -4.42906 -4.42906 H 4.4290625 0 V 106.2975 88.58125 H 4.4290625 8.858125 v -4.429063 -4.429062 h 8.858125 8.858125 V 70.865 62.006875 H 17.71625 8.858125 V 57.577812 53.14875 H 4.4290625 0 V 35.4325 17.71625 H 4.4290625 8.858125 V 13.287187 8.858125 h 4.429062 4.429063 V 4.4290625 0 H 35.4325 53.14875 V 4.4290625 8.858125 h 4.429062 4.429063 v 8.858125 8.858125 H 70.865 79.723125 V 17.71625 8.858125 h 4.429062 4.429063 V 4.4290625 0 h 17.71625 17.71625 V 4.4290625 8.858125 h 4.42906 4.42906 v 4.429062 4.429063 h 4.42907 4.42906 V 35.4325 53.14875 h -4.42906 -4.42907 v 4.429062 4.429063 h -8.85812 -8.85813 V 70.865 79.723125 h 8.85813 8.85812 v 4.429062 4.429063 h 4.42907 4.42906 v 17.71625 17.71625 h -4.42906 -4.42907 v 4.42906 4.42906 h -4.42906 -4.42906 v 4.42907 4.42906 H 106.2975 88.58125 v -4.42906 -4.42907 h -4.429063 -4.429062 v -8.85812 -8.85813 H 70.865 62.006875 v 8.85813 8.85812 H 57.577812 53.14875 v 4.42907 4.42906 H 35.4325 17.71625 Z"
     id="path2611" /><path
     style="fill:#f6eb2e;stroke-width:0.276816"
     d="m 17.71625,137.30094 v -4.42907 H 13.287187 8.858125 v -4.42906 -4.42906 H 4.4290625 0 V 106.2975 88.58125 H 4.4290625 8.858125 v -4.429063 -4.429062 h 8.858125 8.858125 V 70.865 62.006875 H 17.71625 8.858125 V 57.577812 53.14875 H 4.4290625 0 V 35.4325 17.71625 H 4.4290625 8.858125 V 13.287187 8.858125 h 4.429062 4.429063 V 4.4290625 0 H 35.4325 53.14875 V 4.4290625 8.858125 h 4.429062 4.429063 v 8.858125 8.858125 H 70.865 79.723125 V 17.71625 8.858125 h 4.429062 4.429063 V 4.4290625 0 h 17.71625 17.71625 V 4.4290625 8.858125 h 4.42906 4.42906 v 4.429062 4.429063 h 4.42907 4.42906 V 35.4325 53.14875 h -4.42906 -4.42907 v 4.429062 4.429063 h -8.85812 -8.85813 V 70.865 79.723125 h 8.85813 8.85812 v 4.429062 4.429063 h 4.42907 4.42906 v 17.71625 17.71625 h -4.42906 -4.42907 v 4.42906 4.42906 h -4.42906 -4.42906 v 4.42907 4.42906 H 106.2975 88.58125 v -4.42906 -4.42907 h -4.429063 -4.429062 v -8.85812 -8.85813 H 70.865 62.006875 v 8.85813 8.85812 H 57.577812 53.14875 v 4.42907 4.42906 H 35.4325 17.71625 Z m 79.723125,-35.4325 v -4.429065 h 4.429065 4.42906 V 70.865 44.290625 h -4.42906 -4.429065 V 39.861562 35.4325 H 70.865 44.290625 v 4.429062 4.429063 H 39.861562 35.4325 V 70.865 97.439375 h 4.429062 4.429063 v 4.429065 4.42906 H 70.865 97.439375 Z"
     id="path2609" /><path
     style="fill:#50a5db;stroke-width:0.276816"
     d="m 17.71625,137.30094 v -4.42907 H 13.287187 8.858125 v -4.42906 -4.42906 H 4.4290625 0 V 106.2975 88.58125 H 4.4290625 8.858125 v -4.429063 -4.429062 h 8.858125 8.858125 V 70.865 62.006875 H 17.71625 8.858125 V 57.577812 53.14875 H 4.4290625 0 V 35.4325 17.71625 H 4.4290625 8.858125 V 13.287187 8.858125 h 4.429062 4.429063 V 4.4290625 0 H 35.4325 53.14875 V 4.4290625 8.858125 h 4.429062 4.429063 v 8.858125 8.858125 H 70.865 79.723125 V 17.71625 8.858125 h 4.429062 4.429063 V 4.4290625 0 h 17.71625 17.71625 V 4.4290625 8.858125 h 4.42906 4.42906 v 4.429062 4.429063 h 4.42907 4.42906 V 35.4325 53.14875 h -4.42906 -4.42907 v 4.429062 4.429063 h -8.85812 -8.85813 V 70.865 79.723125 h 8.85813 8.85812 v 4.429062 4.429063 h 4.42907 4.42906 v 17.71625 17.71625 h -4.42906 -4.42907 v 4.42906 4.42906 h -4.42906 -4.42906 v 4.42907 4.42906 H 106.2975 88.58125 v -4.42906 -4.42907 h -4.429063 -4.429062 v -8.85812 -8.85813 H 70.865 62.006875 v 8.85813 8.85812 H 57.577812 53.14875 v 4.42907 4.42906 H 35.4325 17.71625 Z m 106.2975,-8.85813 v -4.42906 h 4.42906 4.42906 V 106.2975 88.58125 h -4.42906 -4.42906 v 17.71625 17.71625 H 106.2975 88.58125 v 4.42906 4.42906 h 17.71625 17.71625 z M 97.439375,101.86844 v -4.429065 h 4.429065 4.42906 V 70.865 44.290625 h -4.42906 -4.429065 V 39.861562 35.4325 H 70.865 44.290625 v 4.429062 4.429063 H 39.861562 35.4325 V 70.865 97.439375 h 4.429062 4.429063 v 4.429065 4.42906 H 70.865 97.439375 Z"
     id="path2607" /><path
     style="fill:#f9a11a;stroke-width:0.276816"
     d="m 17.71625,137.30094 v -4.42907 H 13.287187 8.858125 v -4.42906 -4.42906 H 4.4290625 0 V 106.2975 88.58125 H 4.4290625 8.858125 v -4.429063 -4.429062 h 8.858125 8.858125 V 70.865 62.006875 H 17.71625 8.858125 V 57.577812 53.14875 H 4.4290625 0 V 35.4325 17.71625 H 4.4290625 8.858125 V 13.287187 8.858125 h 4.429062 4.429063 V 4.4290625 0 H 35.4325 53.14875 V 4.4290625 8.858125 h 4.429062 4.429063 v 8.858125 8.858125 H 70.865 79.723125 V 17.71625 8.858125 h 4.429062 4.429063 V 4.4290625 0 h 17.71625 17.71625 V 4.4290625 8.858125 h 4.42906 4.42906 v 4.429062 4.429063 h 4.42907 4.42906 V 35.4325 53.14875 h -4.42906 -4.42907 v 4.429062 4.429063 h -8.85812 -8.85813 V 70.865 79.723125 h 8.85813 8.85812 v 4.429062 4.429063 h 4.42907 4.42906 v 17.71625 17.71625 h -4.42906 -4.42907 v 4.42906 4.42906 h -4.42906 -4.42906 v 4.42907 4.42906 H 106.2975 88.58125 v -4.42906 -4.42907 h -4.429063 -4.429062 v -8.85812 -8.85813 H 70.865 62.006875 v 8.85813 8.85812 H 57.577812 53.14875 v 4.42907 4.42906 H 35.4325 17.71625 Z m 106.2975,-8.85813 v -4.42906 h 4.42906 4.42906 V 106.2975 88.58125 h -4.42906 -4.42906 v 17.71625 17.71625 H 106.2975 88.58125 v 4.42906 4.42906 h 17.71625 17.71625 z M 97.439375,101.86844 v -4.429065 h 4.429065 4.42906 V 70.865 44.290625 h -4.42906 -4.429065 V 39.861562 35.4325 H 70.865 44.290625 v 4.429062 4.429063 H 39.861562 35.4325 V 70.865 97.439375 h 4.429062 4.429063 v 4.429065 4.42906 H 70.865 97.439375 Z M 17.71625,35.4325 V 17.71625 H 35.4325 53.14875 V 13.287187 8.858125 H 35.4325 17.71625 v 4.429062 4.429063 H 13.287187 8.858125 V 35.4325 53.14875 h 4.429062 4.429063 z"
     id="path2605" /><path
     style="fill:#5cba4c;stroke-width:0.276816"
     d="m 17.71625,137.30094 v -4.42907 H 13.287187 8.858125 v -4.42906 -4.42906 H 4.4290625 0 V 106.2975 88.58125 H 4.4290625 8.858125 v -4.429063 -4.429062 h 8.858125 8.858125 V 70.865 62.006875 H 17.71625 8.858125 V 57.577812 53.14875 H 4.4290625 0 V 35.4325 17.71625 H 4.4290625 8.858125 V 13.287187 8.858125 h 4.429062 4.429063 V 4.4290625 0 H 35.4325 53.14875 V 4.4290625 8.858125 h 4.429062 4.429063 v 8.858125 8.858125 H 70.865 79.723125 V 17.71625 8.858125 h 4.429062 4.429063 V 4.4290625 0 h 17.71625 17.71625 V 4.4290625 8.858125 h 4.42906 4.42906 v 4.429062 4.429063 h 4.42907 4.42906 V 35.4325 53.14875 h -4.42906 -4.42907 v 4.429062 4.429063 h -8.85812 -8.85813 V 70.865 79.723125 h 8.85813 8.85812 v 4.429062 4.429063 h 4.42907 4.42906 v 17.71625 17.71625 h -4.42906 -4.42907 v 4.42906 4.42906 h -4.42906 -4.42906 v 4.42907 4.42906 H 106.2975 88.58125 v -4.42906 -4.42907 h -4.429063 -4.429062 v -8.85812 -8.85813 H 70.865 62.006875 v 8.85813 8.85812 H 57.577812 53.14875 v 4.42907 4.42906 H 35.4325 17.71625 Z m 106.2975,-8.85813 v -4.42906 h 4.42906 4.42906 V 106.2975 88.58125 H 119.58469 106.2975 V 66.435937 44.290625 h -4.42906 -4.429065 V 39.861562 35.4325 H 70.865 44.290625 v 4.429062 4.429063 H 39.861562 35.4325 V 70.865 97.439375 h 4.429062 4.429063 v 4.429065 4.42906 H 66.435937 88.58125 v 13.28719 13.28718 h 17.71625 17.71625 z M 17.71625,35.4325 V 17.71625 H 35.4325 53.14875 V 13.287187 8.858125 H 35.4325 17.71625 v 4.429062 4.429063 H 13.287187 8.858125 V 35.4325 53.14875 h 4.429062 4.429063 z"
     id="path2603" /><path
     style="fill:#ec1a50;stroke-width:0.276816"
     d="m 17.71625,137.30094 v -4.42907 H 13.287187 8.858125 v -4.42906 -4.42906 H 4.4290625 0 V 106.2975 88.58125 H 4.4290625 8.858125 v -4.429063 -4.429062 h 8.858125 8.858125 V 70.865 62.006875 H 17.71625 8.858125 V 57.577812 53.14875 H 4.4290625 0 V 35.4325 17.71625 H 4.4290625 8.858125 V 13.287187 8.858125 h 4.429062 4.429063 V 4.4290625 0 H 35.4325 53.14875 V 4.4290625 8.858125 h 4.429062 4.429063 v 8.858125 8.858125 H 70.865 79.723125 V 17.71625 8.858125 h 4.429062 4.429063 V 4.4290625 0 h 17.71625 17.71625 V 4.4290625 8.858125 h 4.42906 4.42906 v 4.429062 4.429063 h 4.42907 4.42906 V 35.4325 53.14875 h -4.42906 -4.42907 v 4.429062 4.429063 h -8.85812 -8.85813 V 70.865 79.723125 h 8.85813 8.85812 v 4.429062 4.429063 h 4.42907 4.42906 v 17.71625 17.71625 h -4.42906 -4.42907 v 4.42906 4.42906 h -4.42906 -4.42906 v 4.42907 4.42906 H 106.2975 88.58125 v -4.42906 -4.42907 h -4.429063 -4.429062 v -8.85812 -8.85813 H 70.865 62.006875 v 8.85813 8.85812 H 57.577812 53.14875 v 4.42907 4.42906 H 35.4325 17.71625 Z m 35.4325,-8.85813 v -4.42906 H 35.4325 17.71625 V 106.2975 88.58125 H 13.287187 8.858125 v 17.71625 17.71625 h 4.429062 4.429063 v 4.42906 4.42906 H 35.4325 53.14875 Z m 70.865,0 v -4.42906 h 4.42906 4.42906 V 106.2975 88.58125 H 119.58469 106.2975 V 66.435937 44.290625 h -4.42906 -4.429065 V 39.861562 35.4325 H 70.865 44.290625 v 4.429062 4.429063 H 39.861562 35.4325 V 70.865 97.439375 h 4.429062 4.429063 v 4.429065 4.42906 H 66.435937 88.58125 v 13.28719 13.28718 h 17.71625 17.71625 z M 17.71625,35.4325 V 17.71625 H 35.4325 53.14875 V 13.287187 8.858125 H 35.4325 17.71625 v 4.429062 4.429063 H 13.287187 8.858125 V 35.4325 53.14875 h 4.429062 4.429063 z"
     id="path2601" /><path
     style="fill:#7e2353;stroke-width:0.276816"
     d="m 17.71625,137.30094 v -4.42907 H 13.287187 8.858125 v -4.42906 -4.42906 H 4.4290625 0 V 106.2975 88.58125 H 4.4290625 8.858125 v -4.429063 -4.429062 h 8.858125 8.858125 V 70.865 62.006875 H 17.71625 8.858125 V 57.577812 53.14875 H 4.4290625 0 V 35.4325 17.71625 H 4.4290625 8.858125 V 13.287187 8.858125 h 4.429062 4.429063 V 4.4290625 0 H 35.4325 53.14875 V 4.4290625 8.858125 h 4.429062 4.429063 v 8.858125 8.858125 H 70.865 79.723125 V 17.71625 8.858125 h 4.429062 4.429063 V 4.4290625 0 h 17.71625 17.71625 V 4.4290625 8.858125 h 4.42906 4.42906 v 4.429062 4.429063 h 4.42907 4.42906 V 35.4325 53.14875 h -4.42906 -4.42907 v 4.429062 4.429063 h -8.85812 -8.85813 V 70.865 79.723125 h 8.85813 8.85812 v 4.429062 4.429063 h 4.42907 4.42906 v 17.71625 17.71625 h -4.42906 -4.42907 v 4.42906 4.42906 h -4.42906 -4.42906 v 4.42907 4.42906 H 106.2975 88.58125 v -4.42906 -4.42907 h -4.429063 -4.429062 v -8.85812 -8.85813 H 70.865 62.006875 v 8.85813 8.85812 H 57.577812 53.14875 v 4.42907 4.42906 H 35.4325 17.71625 Z m 35.4325,-8.85813 v -4.42906 H 35.4325 17.71625 V 106.2975 88.58125 H 13.287187 8.858125 v 17.71625 17.71625 h 4.429062 4.429063 v 4.42906 4.42906 H 35.4325 53.14875 Z m 70.865,0 v -4.42906 h 4.42906 4.42906 V 106.2975 88.58125 H 119.58469 106.2975 V 66.435937 44.290625 h -4.42906 -4.429065 V 39.861562 35.4325 H 70.865 44.290625 v 4.429062 4.429063 H 39.861562 35.4325 V 70.865 97.439375 h 4.429062 4.429063 v 4.429065 4.42906 H 66.435937 88.58125 v 13.28719 13.28718 h 17.71625 17.71625 z M 17.71625,35.4325 V 17.71625 H 35.4325 53.14875 V 13.287187 8.858125 H 35.4325 17.71625 v 4.429062 4.429063 H 13.287187 8.858125 V 35.4325 53.14875 h 4.429062 4.429063 z m 115.15562,0 V 17.71625 h -4.42906 -4.42906 V 13.287187 8.858125 H 106.2975 88.58125 v 4.429062 4.429063 h 17.71625 17.71625 V 35.4325 53.14875 h 4.42906 4.42906 z"
     id="path2599" /><path
     style="fill:#008650;stroke-width:0.276816"
     d="m 17.71625,137.30094 v -4.42907 H 13.287187 8.858125 v -4.42906 -4.42906 H 4.4290625 0 V 106.2975 88.58125 H 4.4290625 8.858125 v -4.429063 -4.429062 h 8.858125 8.858125 V 70.865 62.006875 H 17.71625 8.858125 V 57.577812 53.14875 H 4.4290625 0 V 35.4325 17.71625 H 4.4290625 8.858125 V 13.287187 8.858125 h 4.429062 4.429063 V 4.4290625 0 H 35.4325 53.14875 V 4.4290625 8.858125 h 4.429062 4.429063 v 8.858125 8.858125 H 70.865 79.723125 V 17.71625 8.858125 h 4.429062 4.429063 V 4.4290625 0 h 17.71625 17.71625 V 4.4290625 8.858125 h 4.42906 4.42906 v 4.429062 4.429063 h 4.42907 4.42906 V 35.4325 53.14875 h -4.42906 -4.42907 v 4.429062 4.429063 h -8.85812 -8.85813 V 70.865 79.723125 h 8.85813 8.85812 v 4.429062 4.429063 h 4.42907 4.42906 v 17.71625 17.71625 h -4.42906 -4.42907 v 4.42906 4.42906 h -4.42906 -4.42906 v 4.42907 4.42906 H 106.2975 88.58125 v -4.42906 -4.42907 h -4.429063 -4.429062 v -8.85812 -8.85813 H 70.865 62.006875 v 8.85813 8.85812 H 57.577812 53.14875 v 4.42907 4.42906 H 35.4325 17.71625 Z m 35.4325,-8.85813 v -4.42906 H 35.4325 17.71625 V 106.2975 88.58125 H 13.287187 8.858125 v 17.71625 17.71625 h 4.429062 4.429063 v 4.42906 4.42906 H 35.4325 53.14875 Z m 70.865,0 v -4.42906 h 4.42906 4.42906 V 106.2975 88.58125 H 119.58469 106.2975 V 70.865 53.14875 h 13.28719 13.28718 V 35.4325 17.71625 h -4.42906 -4.42906 V 13.287187 8.858125 H 106.2975 88.58125 V 22.145312 35.4325 H 66.435937 44.290625 v 4.429062 4.429063 H 39.861562 35.4325 V 70.865 97.439375 h 4.429062 4.429063 v 4.429065 4.42906 H 66.435937 88.58125 v 13.28719 13.28718 h 17.71625 17.71625 z M 17.71625,35.4325 V 17.71625 H 35.4325 53.14875 V 13.287187 8.858125 H 35.4325 17.71625 v 4.429062 4.429063 H 13.287187 8.858125 V 35.4325 53.14875 h 4.429062 4.429063 z"
     id="path2597" /><path
     style="fill:#1b2a52;stroke-width:0.276816"
     d="m 17.71625,137.30094 v -4.42907 H 13.287187 8.858125 v -4.42906 -4.42906 H 4.4290625 0 V 106.2975 88.58125 H 4.4290625 8.858125 v -4.429063 -4.429062 h 8.858125 8.858125 V 70.865 62.006875 H 17.71625 8.858125 V 57.577812 53.14875 H 4.4290625 0 V 35.4325 17.71625 H 4.4290625 8.858125 V 13.287187 8.858125 h 4.429062 4.429063 V 4.4290625 0 H 35.4325 53.14875 V 4.4290625 8.858125 h 4.429062 4.429063 v 8.858125 8.858125 H 70.865 79.723125 V 17.71625 8.858125 h 4.429062 4.429063 V 4.4290625 0 h 17.71625 17.71625 V 4.4290625 8.858125 h 4.42906 4.42906 v 4.429062 4.429063 h 4.42907 4.42906 V 35.4325 53.14875 h -4.42906 -4.42907 v 4.429062 4.429063 h -8.85812 -8.85813 V 70.865 79.723125 h 8.85813 8.85812 v 4.429062 4.429063 h 4.42907 4.42906 v 17.71625 17.71625 h -4.42906 -4.42907 v 4.42906 4.42906 h -4.42906 -4.42906 v 4.42907 4.42906 H 106.2975 88.58125 v -4.42906 -4.42907 h -4.429063 -4.429062 v -8.85812 -8.85813 H 70.865 62.006875 v 8.85813 8.85812 H 57.577812 53.14875 v 4.42907 4.42906 H 35.4325 17.71625 Z m 35.4325,-17.71625 V 106.2975 H 70.865 88.58125 v 13.28719 13.28718 h 17.71625 17.71625 v -4.42906 -4.42906 h 4.42906 4.42906 V 106.2975 88.58125 H 119.58469 106.2975 V 70.865 53.14875 h 13.28719 13.28718 V 35.4325 17.71625 h -4.42906 -4.42906 V 13.287187 8.858125 H 106.2975 88.58125 V 22.145312 35.4325 H 66.435937 44.290625 v 4.429062 4.429063 H 39.861562 35.4325 V 66.435937 88.58125 H 22.145312 8.858125 v 17.71625 17.71625 h 4.429062 4.429063 v 4.42906 4.42906 H 35.4325 53.14875 Z M 17.71625,35.4325 V 17.71625 H 35.4325 53.14875 V 13.287187 8.858125 H 35.4325 17.71625 v 4.429062 4.429063 H 13.287187 8.858125 V 35.4325 53.14875 h 4.429062 4.429063 z"
     id="path2595" /><path
     style="fill:#000000;stroke-width:0.276816"
     d="m 17.71625,137.30094 v -4.42907 H 13.287187 8.858125 v -4.42906 -4.42906 H 4.4290625 0 V 106.2975 88.58125 H 4.4290625 8.858125 v -4.429063 -4.429062 h 8.858125 8.858125 V 70.865 62.006875 H 17.71625 8.858125 V 57.577812 53.14875 H 4.4290625 0 V 35.4325 17.71625 H 4.4290625 8.858125 V 13.287187 8.858125 h 4.429062 4.429063 V 4.4290625 0 H 35.4325 53.14875 V 4.4290625 8.858125 h 4.429062 4.429063 v 8.858125 8.858125 H 70.865 79.723125 V 17.71625 8.858125 h 4.429062 4.429063 V 4.4290625 0 h 17.71625 17.71625 V 4.4290625 8.858125 h 4.42906 4.42906 v 4.429062 4.429063 h 4.42907 4.42906 V 35.4325 53.14875 h -4.42906 -4.42907 v 4.429062 4.429063 h -8.85812 -8.85813 V 70.865 79.723125 h 8.85813 8.85812 v 4.429062 4.429063 h 4.42907 4.42906 v 17.71625 17.71625 h -4.42906 -4.42907 v 4.42906 4.42906 h -4.42906 -4.42906 v 4.42907 4.42906 H 106.2975 88.58125 v -4.42906 -4.42907 h -4.429063 -4.429062 v -8.85812 -8.85813 H 70.865 62.006875 v 8.85813 8.85812 H 57.577812 53.14875 v 4.42907 4.42906 H 35.4325 17.71625 Z m 35.4325,-17.71625 V 106.2975 H 70.865 88.58125 v 13.28719 13.28718 h 17.71625 17.71625 v -4.42906 -4.42906 h 4.42906 4.42906 V 106.2975 88.58125 H 119.58469 106.2975 V 70.865 53.14875 h 13.28719 13.28718 V 35.4325 17.71625 h -4.42906 -4.42906 V 13.287187 8.858125 H 106.2975 88.58125 V 22.145312 35.4325 H 70.865 53.14875 V 22.145312 8.858125 H 35.4325 17.71625 v 4.429062 4.429063 H 13.287187 8.858125 V 35.4325 53.14875 H 22.145312 35.4325 V 70.865 88.58125 H 22.145312 8.858125 v 17.71625 17.71625 h 4.429062 4.429063 v 4.42906 4.42906 H 35.4325 53.14875 Z"
     id="path2593" /></g><metadata
   id="metadata3065"><rdf:RDF><cc:Work
       rdf:about=""><dc:title>LIKO-12</dc:title></cc:Work></rdf:RDF></metadata></svg>
